<svg width="20" height="30" viewBox="0 0 20 30" fill="none" xmlns="http://www.w3.org/2000/svg">
<path d="M8.23725 3.12696L5.51002 0.399662C4.97758 -0.132895 4.11409 -0.132895 3.58159 0.399662L0.854295 3.12696C0.32168 3.65952 0.32168 4.52278 0.854295 5.0554C1.38685 5.58801 2.25029 5.58801 2.78272 5.05551L4.54574 3.29243L6.30894 5.05551C6.57501 5.3217 6.92411 5.45489 7.27304 5.45489C7.62214 5.45489 7.97106 5.3217 8.23731 5.05545C8.76975 4.52284 8.76975 3.65958 8.23725 3.12696Z" fill="white"/>
<path d="M19.1462 0.39944C18.6137 -0.133176 17.7503 -0.133117 17.2178 0.39944L15.4547 2.16252L13.6917 0.399557C13.1592 -0.133 12.2958 -0.133 11.7632 0.399557C11.2306 0.932115 11.2306 1.79537 11.7632 2.32799L14.4905 5.05523C14.7567 5.32142 15.1058 5.45461 15.4546 5.45461C15.8037 5.45461 16.1526 5.32142 16.4189 5.05517L19.1461 2.32793C19.6786 1.79537 19.6786 0.932056 19.1462 0.39944Z" fill="white"/>
<path d="M1.81806 8.18362C1.06508 8.18374 0.45459 8.79429 0.45459 9.54727V28.6365C0.45459 29.3896 1.06525 30.0001 1.81824 30.0001H8.63641V28.6365V27.2728V10.9102V9.54651V8.18286L1.81806 8.18362Z" fill="white"/>
<path d="M19.1458 8.58126C18.8902 8.32556 18.5432 8.18188 18.1815 8.18188L11.3635 8.18259V9.54624V10.9099V27.2727V28.6364V30H18.1817C18.9349 30 19.5453 29.3895 19.5453 28.6364V9.54553C19.5453 9.18395 19.4017 8.83702 19.1458 8.58126Z" fill="white"/>
</svg>
