<svg width="25" height="30" viewBox="0 0 25 30" fill="none" xmlns="http://www.w3.org/2000/svg">
<path fill-rule="evenodd" clip-rule="evenodd" d="M18.4062 14.6678H6.59374C6.12714 14.6678 5.74999 14.258 5.74999 13.751C5.74999 13.245 6.12714 12.8343 6.59374 12.8343H18.4062C18.8728 12.8343 19.25 13.245 19.25 13.751C19.25 14.258 18.8728 14.6678 18.4062 14.6678ZM18.4062 19.2514H6.59374C6.12714 19.2514 5.74999 18.8417 5.74999 18.3347C5.74999 17.8287 6.12714 17.418 6.59374 17.418H18.4062C18.8728 17.418 19.25 17.8287 19.25 18.3347C19.25 18.8417 18.8728 19.2514 18.4062 19.2514ZM18.4062 23.8351H6.59374C6.12714 23.8351 5.74999 23.4253 5.74999 22.9184C5.74999 22.4124 6.12714 22.0017 6.59374 22.0017H18.4062C18.8728 22.0017 19.25 22.4124 19.25 22.9184C19.25 23.4253 18.8728 23.8351 18.4062 23.8351ZM8.28123 3.66694H10.1569C10.1569 2.65487 11.2057 1.83347 12.5 1.83347C13.7943 1.83347 14.8431 2.65487 14.8431 3.66694H16.7187V7.33389H8.28123V3.66694ZM20.9375 3.66694H18.4062V1.83347H16.134C15.4025 0.742556 14.0575 0 12.5 0C10.9424 0 9.59748 0.742556 8.86594 1.83347H6.59374V3.66694H4.06249C2.19865 3.66694 0.6875 5.30882 0.6875 7.33389V25.6686C0.6875 27.6937 2.19865 29.3355 4.06249 29.3355H20.9375C22.8013 29.3355 24.3124 27.6937 24.3124 25.6686V7.33389C24.3124 5.30882 22.8013 3.66694 20.9375 3.66694Z" fill="white"/>
</svg>
