<svg width="27" height="27" viewBox="0 0 27 27" fill="none" xmlns="http://www.w3.org/2000/svg">
<path d="M24.0451 10.2889C23.8608 10.2857 23.6822 10.2245 23.5342 10.1139C23.3863 10.0033 23.2765 9.8489 23.2203 9.67236C23.0833 9.27212 22.9212 8.88098 22.7351 8.50133C22.6497 8.3353 22.6187 8.14643 22.6465 7.96163C22.6742 7.77684 22.7592 7.60558 22.8895 7.47224C23.2566 7.10004 23.4626 6.59703 23.4626 6.07277C23.4626 5.54852 23.2566 5.04551 22.8895 4.67331L21.5882 3.36921C21.218 2.99866 20.7168 2.79064 20.1944 2.79064C19.672 2.79064 19.1708 2.99866 18.8005 3.36921C18.6678 3.49851 18.498 3.58261 18.3153 3.60967C18.1324 3.63672 17.9457 3.60536 17.7816 3.52002C17.4034 3.33437 17.0146 3.17144 16.6171 3.03209C16.4416 2.97558 16.288 2.86518 16.1781 2.71641C16.0681 2.56764 16.0072 2.38796 16.004 2.20261C16.004 1.67675 15.7963 1.17243 15.4265 0.800586C15.0568 0.428749 14.5552 0.219849 14.0323 0.219849H12.1974C11.6745 0.219849 11.1729 0.428749 10.8032 0.800586C10.4334 1.17243 10.2257 1.67675 10.2257 2.20261C10.2225 2.38796 10.1616 2.56764 10.0516 2.71641C9.94168 2.86518 9.78813 2.97558 9.61258 3.03209C9.21515 3.17144 8.82633 3.33437 8.44809 3.52002C8.28299 3.60585 8.09518 3.63703 7.91142 3.60913C7.72766 3.58128 7.55735 3.49576 7.42476 3.36477C7.05464 2.99557 6.55444 2.7884 6.03311 2.7884C5.51178 2.7884 5.01158 2.99557 4.64146 3.36477L3.34465 4.67331C2.97617 5.04568 2.76931 5.54967 2.76931 6.07499C2.76931 6.60031 2.97617 7.1043 3.34465 7.47668C3.47323 7.61015 3.55686 7.78088 3.58377 7.96469C3.61067 8.14855 3.57949 8.33627 3.49462 8.50133C3.31001 8.88169 3.14799 9.2727 3.00942 9.67236C2.95322 9.8489 2.84344 10.0033 2.6955 10.1139C2.54756 10.2245 2.36889 10.2857 2.18458 10.2889C1.66165 10.2889 1.16015 10.4978 0.790383 10.8696C0.420623 11.2415 0.212891 11.7458 0.212891 12.2717V14.1169C0.212891 14.6428 0.420623 15.1471 0.790383 15.519C1.16015 15.8908 1.66165 16.0997 2.18458 16.0997C2.36889 16.1029 2.54756 16.1642 2.6955 16.2747C2.84344 16.3853 2.95322 16.5397 3.00942 16.7163C3.14799 17.1159 3.31001 17.5069 3.49462 17.8873C3.57997 18.0533 3.61098 18.2422 3.58324 18.427C3.55554 18.6118 3.47049 18.7831 3.34024 18.9164C2.9731 19.2886 2.76709 19.7916 2.76709 20.3159C2.76709 20.8401 2.9731 21.3431 3.34024 21.7153L4.63705 23.0194C5.00678 23.391 5.50817 23.5998 6.0309 23.5998C6.55364 23.5998 7.05503 23.391 7.42476 23.0194C7.55748 22.8901 7.72726 22.806 7.91005 22.779C8.09288 22.7519 8.27955 22.7833 8.44368 22.8686C8.82192 23.0542 9.21074 23.2172 9.60817 23.3565C9.78372 23.413 9.93727 23.5234 10.0472 23.6722C10.1572 23.821 10.2181 24.0007 10.2213 24.186C10.2213 24.7119 10.429 25.2162 10.7988 25.5881C11.1685 25.9599 11.6701 26.1688 12.193 26.1688H14.0279C14.5508 26.1688 15.0524 25.9599 15.4221 25.5881C15.7919 25.2162 15.9996 24.7119 15.9996 24.186C16.0028 24.0007 16.0637 23.821 16.1737 23.6722C16.2836 23.5234 16.4372 23.413 16.6127 23.3565C17.0101 23.2172 17.399 23.0542 17.7772 22.8686C17.9423 22.7828 18.1301 22.7516 18.3139 22.7795C18.4976 22.8073 18.6679 22.8929 18.8005 23.0239C19.1701 23.3941 19.6705 23.6021 20.1922 23.6021C20.7139 23.6021 21.2143 23.3941 21.5838 23.0239L22.8806 21.7198C23.2491 21.3474 23.456 20.8434 23.456 20.3181C23.456 19.7927 23.2491 19.2888 22.8806 18.9164C22.7521 18.7829 22.6684 18.6122 22.6415 18.4284C22.6146 18.2445 22.6458 18.0568 22.7307 17.8917C22.9168 17.5121 23.0789 17.1209 23.2159 16.7207C23.2721 16.5442 23.3819 16.3898 23.5298 16.2792C23.6777 16.1686 23.8564 16.1074 24.0407 16.1041C24.5636 16.1041 25.0652 15.8953 25.4349 15.5234C25.8047 15.1516 26.0124 14.6472 26.0124 14.1214V12.2717C26.0124 11.7466 25.8053 11.243 25.4365 10.8712C25.0677 10.4995 24.5673 10.2901 24.0451 10.2889ZM13.1149 19.6438C11.8464 19.6438 10.6064 19.2656 9.55171 18.5569C8.49701 17.8482 7.67499 16.841 7.18957 15.6624C6.70414 14.484 6.57715 13.1872 6.82461 11.9361C7.07206 10.685 7.68289 9.53578 8.57985 8.63382C9.47677 7.73182 10.6195 7.11756 11.8637 6.86872C13.1078 6.61987 14.3973 6.74758 15.5692 7.23573C16.7411 7.72388 17.7428 8.55052 18.4475 9.61114C19.1522 10.6718 19.5283 11.9187 19.5283 13.1943C19.5272 14.9045 18.8511 16.5443 17.6486 17.7535C16.4461 18.9628 14.8154 19.6427 13.1149 19.6438Z" fill="white"/>
</svg>
