<svg width="19" height="25" viewBox="0 0 19 25" fill="none" xmlns="http://www.w3.org/2000/svg">
<path d="M9.09033 0.166748C4.1278 0.166748 0.090332 4.07618 0.090332 8.88457C0.090332 13.4839 8.18805 24.1209 8.52983 24.5683C8.59344 24.6503 8.67752 24.7171 8.77504 24.7632C8.87251 24.8093 8.98065 24.8334 9.09033 24.8334C9.20002 24.8334 9.30815 24.8093 9.40563 24.7632C9.50315 24.7171 9.58722 24.6503 9.65084 24.5683C10.0017 24.1209 18.0903 13.5006 18.0903 8.88457C18.0903 4.07618 14.0529 0.166748 9.09033 0.166748ZM4.88426 8.88457C5.1121 3.77095 13.0868 3.77095 13.2964 8.88457C13.0686 14.0024 5.1121 13.9982 4.88426 8.88457Z" fill="#005E32"/>
</svg>
