<svg width="16" height="21" viewBox="0 0 16 21" fill="none" xmlns="http://www.w3.org/2000/svg">
<path d="M13.4961 2.26951H11.2461C11.0117 1.95702 10.6406 1.76953 10.25 1.76953H9.41406C9.13672 0.988311 8.28125 0.578171 7.5 0.855504C7.07422 1.00784 6.73828 1.34377 6.58594 1.76953H5.75C5.35547 1.76953 4.98828 1.95702 4.75 2.26951H2.5C1.12109 2.27342 0.00390625 3.39056 0 4.76942V18.2689C0.00390625 19.6477 1.12109 20.7649 2.5 20.7688H13.5C14.8789 20.7649 15.9961 19.6477 16 18.2689V4.76942C15.9922 3.39056 14.875 2.27342 13.4961 2.26951ZM7.99609 1.76953C8.27344 1.76953 8.49609 1.99218 8.49609 2.26951C8.49609 2.54684 8.27344 2.76949 7.99609 2.76949C7.71875 2.76949 7.49609 2.54684 7.49609 2.26951C7.49609 1.99218 7.71875 1.76953 7.99609 1.76953ZM6.58203 2.76949C6.85938 3.55071 7.71484 3.96085 8.49609 3.68352C8.92187 3.53118 9.25781 3.19526 9.41016 2.76949H10.2461C10.3828 2.76949 10.4961 2.88277 10.4961 3.01948V4.51943C10.4961 4.65614 10.3828 4.76942 10.2461 4.76942H5.74609C5.60937 4.76942 5.49609 4.65614 5.49609 4.51943V3.01948C5.49609 2.88277 5.60937 2.76949 5.74609 2.76949H6.58203ZM6.41016 15.5463L5.41016 17.0463C5.26953 17.2572 4.99609 17.3275 4.76953 17.2142L3.76953 16.7143C3.52344 16.5893 3.42188 16.2885 3.54688 16.0424C3.67188 15.7963 3.97266 15.6948 4.21875 15.8198L4.82422 16.1244L5.57812 14.9917C5.73047 14.7612 6.03906 14.6948 6.26953 14.8472C6.5 14.9995 6.56641 15.3081 6.41406 15.5385C6.41406 15.5424 6.41406 15.5424 6.41016 15.5463ZM6.41016 12.0465L5.41016 13.5464C5.26953 13.7574 4.99609 13.8277 4.76953 13.7183L3.76953 13.2183C3.52344 13.0933 3.42188 12.7925 3.54688 12.5465C3.67188 12.3004 3.97266 12.1988 4.21875 12.3238L4.82422 12.6285L5.57812 11.4957C5.73047 11.2653 6.03906 11.1989 6.26953 11.3512C6.5 11.5035 6.56641 11.8121 6.41406 12.0426C6.41406 12.0426 6.41406 12.0465 6.41016 12.0465ZM6.41016 8.54661L5.41016 10.0466C5.26953 10.2575 4.99609 10.3278 4.76953 10.2184L3.77344 9.71454C3.52734 9.58954 3.42578 9.28877 3.55078 9.04269C3.67578 8.7966 3.97656 8.69505 4.22266 8.82004L4.82812 9.12472L5.58203 7.99195C5.73438 7.76149 6.04297 7.69508 6.27344 7.84742C6.50391 7.99976 6.57031 8.30834 6.41797 8.5388C6.41406 8.54271 6.41406 8.54271 6.41016 8.54661ZM12 16.769H7.99609C7.71875 16.769 7.49609 16.5463 7.49609 16.269C7.49609 15.9916 7.71875 15.769 7.99609 15.769H11.9961C12.2734 15.769 12.4961 15.9916 12.4961 16.269C12.4961 16.5463 12.2734 16.769 12 16.769ZM12 13.2691H7.99609C7.71875 13.2691 7.49609 13.0464 7.49609 12.7691C7.49609 12.4918 7.71875 12.2691 7.99609 12.2691H11.9961C12.2734 12.2691 12.4961 12.4918 12.4961 12.7691C12.4961 13.0464 12.2734 13.2691 12 13.2691ZM12 9.76922H7.99609C7.71875 9.76922 7.49609 9.54658 7.49609 9.26924C7.49609 8.99191 7.71875 8.76926 7.99609 8.76926H11.9961C12.2734 8.76926 12.4961 8.99191 12.4961 9.26924C12.4961 9.54658 12.2734 9.76922 12 9.76922Z" fill="#005E32"/>
</svg>
